<svg version="1" xmlns="http://www.w3.org/2000/svg" width="2166.667" height="2166.667" viewBox="0 0 1625.000000 1625.000000"><path d="M811.3 2.8c-.7 1.5-22.4 55.8-48.3 120.7s-47.5 118.9-48 120c-.5 1.1-7.7 19.1-16 40s-15.4 38.7-15.8 39.5c-.4.8-7 17.4-14.7 36.8-12.5 31.6-14.3 35.3-16.5 35.8-5.2 1.3-29.8 8.7-38.5 11.6-57.4 19.4-110.3 46.2-159.6 80.8-15.4 10.8-16 11.2-31.3 23.4C403.1 527 392 537 371.9 557c-17.7 17.6-23 23.3-39.4 42.4-16 18.7-42.9 56.2-54 75.4-.6.9-2.4 3.9-4 6.7-4.7 7.8-4.7 7.8-10.7 18.7-25.5 46.4-45 96.6-58.2 149.3-1.4 5.5-2.7 11.1-3 12.5-.3 1.4-1.6 7.9-3 14.5s-2.8 13.8-3.1 16c-2.2 14.3-3.5 22.6-4 27-.3 2.7-.8 6.4-1 8-.2 1.7-.7 6.4-1 10.5-.4 4.1-.8 8.5-1 9.8-2.4 14.9-2.4 78.6 0 104.2.2 2.5.7 7.6 1 11.5.4 3.8.8 8.1 1 9.5.5 3.6 1.4 10 1.9 14 4.3 32.8 13.9 74.4 25 108 5.2 15.9 14.2 40 18.1 48.5.7 1.6 3.4 7.6 5.9 13.3 5 11.1 18.3 37.7 24.2 48.2 20.7 37.2 53.2 82.6 81.3 113.5 6 6.6 41.5 42.1 46.4 46.4 28.8 25.1 45.3 37.7 73.7 56.6 53.9 35.8 112 62.5 175 80.3 9.3 2.7 29.2 7.8 33.8 8.7 14.7 2.9 29.3 5.7 32.1 6.1 2 .3 4.7.7 6.1.9 1.4.3 6.1.9 10.5 1.5s9.1 1.3 10.5 1.5c1.4.3 5.7.7 9.5 1.1 3.9.3 7.8.8 8.9 1 13.8 2.6 93.6 2.5 115.6-.1 1.9-.2 6.4-.7 10-1 12-1.2 37.4-4.9 48-7 1.4-.3 3.7-.7 5.2-1 8-1.5 27.5-5.9 35.8-8.1 5.2-1.4 10.2-2.7 11-2.9 11.5-2.8 50.8-16 62.5-21 1.7-.7 8.6-3.6 15.5-6.5 57.1-24 114.3-59.8 165-103.4 14.5-12.4 48.5-46.6 61-61.1 5.6-6.6 11.2-13.1 12.4-14.5 1.2-1.4 3.5-4.3 5.1-6.5 1.7-2.2 3.3-4.2 3.6-4.5 1.9-1.6 20.7-27.8 29.4-41 35.3-53.6 62.8-113.4 79-171.5 1.5-5.5 3.6-12.9 4.6-16.5 3.8-13.9 11.6-53.4 13.4-68 .3-2.5.7-5.9 1-7.5 1-6.4 1.5-10.6 2.1-17.7.3-4 .7-8.7.9-10.3 2.4-18.4 2.4-81.7 0-104.7-.2-2.4-.7-7-1-10.3-1.2-12.2-2.7-23.7-4.1-32.5-.3-1.9-.8-4.9-1-6.5-.6-4.8-5.3-29.6-5.8-30.3-.2-.4-.7-2.4-1-4.5-.8-4.7-4.7-20.7-7.6-30.7-1.2-4.1-2.4-8.4-2.7-9.5-2-7.9-12.6-38.9-18-52.5-9.3-23.6-14.4-34.7-29.1-63.5-15-29.5-44.6-74-67.7-102-18-21.8-49.4-54.8-67-70.5-14.9-13.3-28.1-23.9-54.5-43.8-1.4-1.1-8.6-5.9-16-10.9-55.5-36.9-113.8-63.9-176.5-81.8l-13-3.7-4.4-11.1c-2.4-6.2-4.9-12.6-5.6-14.2-.7-1.7-2.5-6.2-4-10-1.5-3.9-3.6-8.9-4.6-11.2-1-2.4-1.9-4.6-1.9-4.9 0-.3-.6-2-1.4-3.7-.8-1.8-5.4-13.1-10.1-25.2-4.8-12.1-9.3-23.4-10-25-.7-1.7-7.9-19.7-16-40-8.1-20.4-15.3-38.4-16-40-.7-1.7-4.3-10.7-8-20-3.7-9.4-7.3-18.4-8-20-.7-1.7-6.1-15.2-12-30-5.9-14.9-11.6-28.9-12.6-31.2-1-2.4-1.9-4.6-1.9-4.9 0-.3-.7-2-1.5-3.7-.8-1.8-4.6-11.3-8.5-21.2-3.9-9.9-7.5-18.9-8-20-.5-1.1-5.9-14.6-12-30C817.8 13.1 812.7.4 812.6.3c-.1-.1-.7 1-1.3 2.5zm104.6 424.9c56.6 141.8 103.1 258.4 103.3 259.2.2 1.1-3.3 1.4-19.1 1.5-11.6 0-19.9-.3-20.7-.9-.7-.6-17.9-42.6-38.2-93.5l-37-92.5H833.5l-.1 327.5c-.1 180.1.1 326.8.3 326 .3-.8 1.1-2.9 1.9-4.5.7-1.7 2.4-5.9 3.9-9.5 1.4-3.6 3-7.4 3.5-8.5.5-1.1 5.7-14.2 11.6-29 5.8-14.9 11.2-28.4 11.9-30 .7-1.7 4.3-10.7 8-20 3.7-9.4 7.3-18.4 8-20 .7-1.7 3.6-8.9 6.4-16 2.8-7.2 5.5-13.9 6.1-15 .5-1.1 2.1-5.2 3.6-9 1.4-3.9 3.2-8.4 3.9-10 .7-1.7 3.3-8.2 5.8-14.5 2.5-6.3 5.1-12.9 5.8-14.5.7-1.7 1.3-3.5 1.5-4 .2-.8 19.4-48.5 22.9-57 .4-1.1.9-2.5 1.1-3 .1-.6 1.5-4.2 3.2-8 3.4-8.1 4.4-10.6 4.8-12 .2-.6 1.8-4.6 3.5-9 1.8-4.4 8.8-21.7 15.5-38.5l12.2-30.5 20.7-.1c14.5-.1 20.5.2 20.2 1-11.7 29.3-37 92.7-37.7 94.1-.5 1.1-11.3 28.1-24 60s-23.5 58.9-24 60c-.5 1.1-6.4 15.7-13 32.5s-12.5 31.4-13 32.5c-.5 1.1-1.9 4.5-3 7.5-1.2 3-2.7 6.8-3.4 8.5-.7 1.6-21 52.4-45.2 112.7-24.1 60.4-43.9 109.7-44 109.5-.3-.3-204.4-510.5-205.9-514.8l-1.3-3.6 20.5.1 20.5.1 45.5 114c25 62.7 46 115.3 46.7 117 .7 1.6 2.6 6.1 4.1 10 1.5 3.8 3.3 8.3 4 10 .7 1.6 2.9 7.3 5 12.5 2 5.2 4.1 10.4 4.6 11.5.5 1.1 8.6 21.3 18 45 9.4 23.6 17.2 43.1 17.3 43.3.2.1.2-147.1.2-327l-.1-327.3H720.8l-34.4 86c-18.9 47.3-34.4 86.6-34.4 87.2 0 .7-.4 1.3-.8 1.3s-1.4 2-2.1 4.4c-2.4 8.1-1.7 7.9-20.7 7.8-9.3 0-18.4 0-20.1-.1l-3.3-.1 2.1-5.3c1.2-2.8 2.9-7.2 3.8-9.7.9-2.5 1.9-4.7 2.4-4.8.4-.2.7-.9.7-1.5 0-.7 3.3-9.5 7.4-19.7 13.9-34.9 69.2-173 102.7-256.5 8.3-20.9 15.4-39 15.7-40.3.2-1.2.8-2.2 1.3-2.2s.9-.6.9-1.3c0-.7 6.9-18.6 15.4-39.7 21.2-52.9 53.2-133.1 53.9-135.3.4-.9.8-1.7 1.1-1.7.2 0 46.8 116 103.5 257.7zM525.4 593.5l7.6 19-2.7 2c-1.5 1.1-7.1 5.4-12.4 9.5-8.8 6.9-14.2 11.4-26.9 22.5-17.8 15.6-45.9 46.6-62.5 69-21 28.2-40.7 62-53.5 91.5-1.8 4.1-3.8 8.8-4.6 10.5-3.7 8.4-16.4 44.7-17.9 51.5-.2.8-1.1 4.2-2 7.5-2.4 8.9-8.2 35.3-9 40.5-.3 2.5-.8 5.7-1.1 7.2-1.8 11.8-2.6 17.7-4 31.8-2.2 23.1-2.2 70.6 0 88.5.3 1.6.7 6.1 1.1 10 .3 3.8.8 7.7 1 8.5.2.8.6 3.7 1 6.5.9 7.4 4.1 24.7 6.5 35.5 1.2 5.2 2.4 10.6 2.6 12 .3 1.4.9 3.6 1.4 5 .5 1.4 1.8 6.1 3 10.5s2.5 8.9 2.9 10c.5 1.1 2.3 6.5 4.1 12 7.1 21.6 24 60 34.7 78.5 10.3 17.9 18.9 31.4 28.6 45 49.1 68.6 117.1 124.4 192.7 158 6.3 2.8 12.4 5.5 13.5 6 21.3 9.5 67.9 23.3 92.5 27.5 1.9.3 4.2.8 5 1 .8.3 3.1.7 5 .9 6 .8 11.4 1.6 13.5 2.1 1.1.2 5.4.7 9.5 1.1 4.1.3 7.8.8 8.1 1 1.6.9 26.6 1.9 49.4 1.9 23.1 0 41.1-.7 50-2 1.7-.2 7.3-.9 12.5-1.6 5.2-.6 10.2-1.2 11-1.4.8-.1 3.5-.6 6-1s5.4-.9 6.5-1.1c1.1-.3 3.6-.7 5.5-1 6.3-.9 43.3-10.3 52.5-13.3 11.5-3.7 33.7-11.7 39.5-14.3 2.5-1.1 5.4-2.4 6.5-2.8 13.2-5.6 41.5-20 52-26.5 2.2-1.3 5.6-3.3 7.5-4.4 5.2-2.8 28.3-18.5 37.5-25.4 37.3-28.1 76.5-67.9 100.5-102.3 17.4-24.9 28.5-43.3 39.5-65.4 4.6-9.1 9-18.2 9.9-20.3 3.6-8.3 4.5-10.4 6.6-15.7 1.2-3 2.6-6.4 3-7.5 7.6-18.7 18.5-56.6 22.4-77.9.3-1.5.7-3.4 1-4.4.2-.9.7-3.9 1.1-6.6.3-2.7.8-5.2 1-5.5.2-.4.6-3.5 1-7.1.3-3.5.8-6.7 1-7 .2-.3.6-4.1.9-8.4.4-4.4.9-8.2 1.1-8.6.7-1.2 1.9-32.5 1.9-49.5-.1-15.4-1-35.1-1.9-41.5-.2-1.4-.6-5.2-.9-8.5-.7-6.2-1.4-11.8-2.3-17-.2-1.7-.6-3.9-.8-5-1.2-9-1.8-12.5-2.5-15.5-.5-1.9-1.2-4.9-1.4-6.5-.3-1.7-.8-3.9-1-5-.3-1.1-1.2-4.9-2-8.5-11.4-50.3-34.5-104-65.1-151-7.4-11.4-26.6-37.6-31.1-42.5-1.1-1.1-4.4-4.9-7.4-8.5-4.4-5.2-17-18.8-23.6-25.4-9.7-9.6-20.3-19.3-35.4-32-1.4-1.2-6.9-5.4-12.2-9.5-5.4-4.1-9.8-7.5-9.8-7.7 0-.5 7.8-20.3 9.4-23.9.8-1.7 1.7-4.1 2.1-5.5.4-1.4 1.6-4.2 2.6-6.3l1.9-3.7 14.8 11.2c8.1 6.1 14.9 11.4 15.2 11.7.3.4 2.1 1.9 4 3.5 35.2 28.8 70.8 67.8 97 106.1 3 4.4 5.8 8.1 6.3 8.3.4.2.7.7.7 1.2s1.8 3.6 4 6.9c2.2 3.3 4 6.5 4 7.1 0 .5.5 1 1 1 .6 0 1 .4 1 .9s1.7 3.8 3.9 7.2c15.4 25.5 32.2 62.4 43.3 94.9 4.6 13.4 11.3 36.1 12.4 42 .3 1.4.9 4.1 1.4 6.1 3.2 11.8 8.9 44.9 10.5 60.4.4 3.3.8 7.1 1 8.4 2.5 15.2 2.5 85 0 100.3-.2 1.3-.6 4.8-1 7.8-1.4 12.9-2 17.4-3.5 26-.5 3-1.2 7.3-1.6 9.5-.3 2.2-1.9 10.1-3.5 17.5-23.4 107.5-82.4 207.3-164.8 279-4.1 3.6-8.2 7.2-9.1 8-2.6 2.5-22.6 18.1-27.3 21.4-20.3 14.2-26 17.9-38.7 25.6-33.3 20-66.3 35.3-103.5 47.8-12.4 4.2-36.8 11.1-46.5 13.2-15.3 3.2-23.8 5-26.5 5.4-9.6 1.7-22.8 3.6-28 4.1-3.3.4-7 .8-8.2 1-1.2.2-6.6.7-12 1-5.4.4-11.1.9-12.8 1.1-3.8.5-51.1.5-58.5 0-10.3-.7-23.5-1.7-26-2.1-1.4-.2-5.4-.7-9-1-3.6-.4-7.4-.9-8.5-1.1-1.1-.2-4-.7-6.5-1-5.1-.6-4.9-.6-19-3.3-20.4-3.9-22.5-4.4-44.5-10.7-43.3-12.2-86.2-30.8-124.5-53.7-9.5-5.7-30.3-19.3-36.6-24.1-2.3-1.7-5.5-4-7-5.1-4.5-3.2-28.5-22.5-30.9-24.9-1.2-1.1-6-5.5-10.6-9.7-15-13.6-33.8-33.3-45.9-47.9-3.4-4.1-6.9-8.4-7.8-9.5-11.7-13.9-30.5-41.3-43.4-63-7-11.9-27.2-51.5-26.2-51.5.4 0 .2-.6-.4-1.3-1-1.1-11.9-27.4-12.8-30.7-.2-.8-2.2-6.9-4.4-13.5-3.5-10.4-10.6-34.1-11.5-38.5-.2-.8-1-4.5-1.9-8.1-.8-3.7-1.7-7.9-2-9.3-.3-1.4-.7-3.4-1-4.4-.3-.9-.7-3.3-1-5.2-.3-1.9-1.2-7.1-2-11.5s-2.2-13.9-3.1-21l-2-16c-3-21.6-2.5-83.3.9-108 .3-2.8.8-6.8 1.1-9 .8-7.1 2.6-18.9 3.6-24 .5-2.8 1.1-6.1 1.4-7.5.3-1.4.9-4.8 1.5-7.5.6-2.8 1.2-6 1.4-7.2 2.6-13.2 17.7-63.5 21.6-71.8.5-1.1 2.3-5.4 3.9-9.5 32.1-81.7 91.5-160.1 163.7-216.1 6.7-5.2 13.4-10.3 14.9-11.4 1.6-1.1 3.8-2.8 4.9-3.7 1.2-.9 2.4-1.4 2.8-1 .4.4 4.1 9.2 8.2 19.7z"/><path d="M775.1 365.6c-20.4 51.1-37.1 93.2-37.1 93.5 0 .3 33.4.5 74.3.5 65.3-.1 74.2-.3 74.1-1.6-.1-1.4-71.8-181-73.3-183.9-.5-.8-14.9 33.9-38 91.5z"/></svg>